{
    "asset" : {
        "generator" : "Khronos glTF Blender I/O v1.7.33",
        "version" : "2.0"
    },
    "extensionsUsed" : [
        "KHR_materials_transmission"
    ],
    "scene" : 0,
    "scenes" : [
        {
            "name" : "Scene",
            "nodes" : [
                0,
                1,
                2,
                3,
                4,
                5,
                6,
                7,
                8,
                9
            ]
        }
    ],
    "nodes" : [
        {
            "mesh" : 0,
            "name" : "Cube",
            "translation" : [
                0,
                3.2705307006835938,
                0
            ]
        },
        {
            "mesh" : 1,
            "name" : "Sphere.001",
            "translation" : [
                2,
                3.3604090213775635,
                0
            ]
        },
        {
            "mesh" : 2,
            "name" : "Sphere.002",
            "translation" : [
                -2,
                3.3604090213775635,
                0
            ]
        },
        {
            "mesh" : 3,
            "name" : "Cone.002",
            "translation" : [
                -2,
                4.674220085144043,
                0
            ]
        },
        {
            "mesh" : 4,
            "name" : "Cone.001",
            "translation" : [
                1.9954416751861572,
                4.674220085144043,
                0
            ]
        },
        {
            "mesh" : 5,
            "name" : "Cylinder.003",
            "translation" : [
                -2,
                5.64027214050293,
                0
            ]
        },
        {
            "mesh" : 6,
            "name" : "Cylinder.002",
            "translation" : [
                2,
                5.64027214050293,
                0
            ]
        },
        {
            "mesh" : 7,
            "name" : "Cylinder.001",
            "translation" : [
                0,
                6.770530700683594,
                0
            ]
        },
        {
            "mesh" : 8,
            "name" : "Cone",
            "translation" : [
                0,
                1.2705307006835938,
                0
            ]
        },
        {
            "mesh" : 9,
            "name" : "Cylinder.004",
            "translation" : [
                1.9774892330169678,
                0.633305549621582,
                0
            ]
        }
    ],
    "materials" : [
        {
            "doubleSided" : true,
            "name" : "Blauw",
            "pbrMetallicRoughness" : {
                "baseColorFactor" : [
                    0.016833366826176643,
                    0.23243822157382965,
                    0.8000000715255737,
                    1
                ],
                "metallicFactor" : 0,
                "roughnessFactor" : 0.4000000059604645
            }
        },
        {
            "doubleSided" : true,
            "name" : "Water",
            "pbrMetallicRoughness" : {
                "baseColorFactor" : [
                    0.034790150821208954,
                    0.20230211317539215,
                    0.8000000715255737,
                    1
                ],
                "metallicFactor" : 0,
                "roughnessFactor" : 0.5
            }
        },
        {
            "doubleSided" : true,
            "extensions" : {
                "KHR_materials_transmission" : {
                    "transmissionFactor" : 1
                }
            },
            "name" : "Buis",
            "pbrMetallicRoughness" : {
                "baseColorFactor" : [
                    0.04545041546225548,
                    0.23963043093681335,
                    0.8000000715255737,
                    1
                ],
                "metallicFactor" : 0,
                "roughnessFactor" : 0.5
            }
        },
        {
            "doubleSided" : true,
            "name" : "Trechter",
            "pbrMetallicRoughness" : {
                "baseColorFactor" : [
                    0.38704198598861694,
                    0.3639763295650482,
                    0.4109378457069397,
                    1
                ],
                "metallicFactor" : 0,
                "roughnessFactor" : 0.5
            }
        }
    ],
    "meshes" : [
        {
            "name" : "Cube.001",
            "primitives" : [
                {
                    "attributes" : {
                        "POSITION" : 0,
                        "NORMAL" : 1,
                        "TEXCOORD_0" : 2
                    },
                    "indices" : 3,
                    "material" : 0
                }
            ]
        },
        {
            "name" : "Sphere.002",
            "primitives" : [
                {
                    "attributes" : {
                        "POSITION" : 4,
                        "NORMAL" : 5,
                        "TEXCOORD_0" : 6
                    },
                    "indices" : 7,
                    "material" : 1
                }
            ]
        },
        {
            "name" : "Sphere.003",
            "primitives" : [
                {
                    "attributes" : {
                        "POSITION" : 8,
                        "NORMAL" : 9,
                        "TEXCOORD_0" : 10
                    },
                    "indices" : 7,
                    "material" : 1
                }
            ]
        },
        {
            "name" : "Cone.002",
            "primitives" : [
                {
                    "attributes" : {
                        "POSITION" : 11,
                        "NORMAL" : 12,
                        "TEXCOORD_0" : 13
                    },
                    "indices" : 14
                }
            ]
        },
        {
            "name" : "Cone.003",
            "primitives" : [
                {
                    "attributes" : {
                        "POSITION" : 15,
                        "NORMAL" : 16,
                        "TEXCOORD_0" : 17
                    },
                    "indices" : 14
                }
            ]
        },
        {
            "name" : "Cylinder.003",
            "primitives" : [
                {
                    "attributes" : {
                        "POSITION" : 18,
                        "NORMAL" : 19,
                        "TEXCOORD_0" : 20
                    },
                    "indices" : 21
                }
            ]
        },
        {
            "name" : "Cylinder.006",
            "primitives" : [
                {
                    "attributes" : {
                        "POSITION" : 22,
                        "NORMAL" : 23,
                        "TEXCOORD_0" : 24
                    },
                    "indices" : 21
                }
            ]
        },
        {
            "name" : "Cylinder.007",
            "primitives" : [
                {
                    "attributes" : {
                        "POSITION" : 25,
                        "NORMAL" : 26,
                        "TEXCOORD_0" : 27
                    },
                    "indices" : 28,
                    "material" : 2
                }
            ]
        },
        {
            "name" : "Cone.004",
            "primitives" : [
                {
                    "attributes" : {
                        "POSITION" : 29,
                        "NORMAL" : 30,
                        "TEXCOORD_0" : 31
                    },
                    "indices" : 32,
                    "material" : 3
                }
            ]
        },
        {
            "name" : "Cylinder.008",
            "primitives" : [
                {
                    "attributes" : {
                        "POSITION" : 33,
                        "NORMAL" : 34,
                        "TEXCOORD_0" : 35
                    },
                    "indices" : 36,
                    "material" : 2
                }
            ]
        }
    ],
    "accessors" : [
        {
            "bufferView" : 0,
            "componentType" : 5126,
            "count" : 24,
            "max" : [
                4,
                0.5,
                1
            ],
            "min" : [
                -4,
                -0.5,
                -1
            ],
            "type" : "VEC3"
        },
        {
            "bufferView" : 1,
            "componentType" : 5126,
            "count" : 24,
            "type" : "VEC3"
        },
        {
            "bufferView" : 2,
            "componentType" : 5126,
            "count" : 24,
            "type" : "VEC2"
        },
        {
            "bufferView" : 3,
            "componentType" : 5123,
            "count" : 36,
            "type" : "SCALAR"
        },
        {
            "bufferView" : 4,
            "componentType" : 5126,
            "count" : 230,
            "max" : [
                0.9238793849945068,
                1,
                0.9238793253898621
            ],
            "min" : [
                -0.9238792061805725,
                0.3826834261417389,
                -0.9238795042037964
            ],
            "type" : "VEC3"
        },
        {
            "bufferView" : 5,
            "componentType" : 5126,
            "count" : 230,
            "type" : "VEC3"
        },
        {
            "bufferView" : 6,
            "componentType" : 5126,
            "count" : 230,
            "type" : "VEC2"
        },
        {
            "bufferView" : 7,
            "componentType" : 5123,
            "count" : 1056,
            "type" : "SCALAR"
        },
        {
            "bufferView" : 8,
            "componentType" : 5126,
            "count" : 230,
            "max" : [
                0.9238793849945068,
                1,
                0.9238793253898621
            ],
            "min" : [
                -0.9238792061805725,
                0.3826834261417389,
                -0.9238795042037964
            ],
            "type" : "VEC3"
        },
        {
            "bufferView" : 9,
            "componentType" : 5126,
            "count" : 230,
            "type" : "VEC3"
        },
        {
            "bufferView" : 10,
            "componentType" : 5126,
            "count" : 230,
            "type" : "VEC2"
        },
        {
            "bufferView" : 11,
            "componentType" : 5126,
            "count" : 128,
            "max" : [
                0.2953343391418457,
                0.2953343391418457,
                0.2953343391418457
            ],
            "min" : [
                -0.2953343391418457,
                -0.2953343391418457,
                -0.2953343391418457
            ],
            "type" : "VEC3"
        },
        {
            "bufferView" : 12,
            "componentType" : 5126,
            "count" : 128,
            "type" : "VEC3"
        },
        {
            "bufferView" : 13,
            "componentType" : 5126,
            "count" : 128,
            "type" : "VEC2"
        },
        {
            "bufferView" : 14,
            "componentType" : 5123,
            "count" : 186,
            "type" : "SCALAR"
        },
        {
            "bufferView" : 15,
            "componentType" : 5126,
            "count" : 128,
            "max" : [
                0.2953343391418457,
                0.2953343391418457,
                0.2953343391418457
            ],
            "min" : [
                -0.2953343391418457,
                -0.2953343391418457,
                -0.2953343391418457
            ],
            "type" : "VEC3"
        },
        {
            "bufferView" : 16,
            "componentType" : 5126,
            "count" : 128,
            "type" : "VEC3"
        },
        {
            "bufferView" : 17,
            "componentType" : 5126,
            "count" : 128,
            "type" : "VEC2"
        },
        {
            "bufferView" : 18,
            "componentType" : 5126,
            "count" : 380,
            "max" : [
                0.10088825225830078,
                0.9274871349334717,
                0.10088825225830078
            ],
            "min" : [
                -0.10088825225830078,
                -0.9467200636863708,
                -0.10088825225830078
            ],
            "type" : "VEC3"
        },
        {
            "bufferView" : 19,
            "componentType" : 5126,
            "count" : 380,
            "type" : "VEC3"
        },
        {
            "bufferView" : 20,
            "componentType" : 5126,
            "count" : 380,
            "type" : "VEC2"
        },
        {
            "bufferView" : 21,
            "componentType" : 5123,
            "count" : 576,
            "type" : "SCALAR"
        },
        {
            "bufferView" : 22,
            "componentType" : 5126,
            "count" : 380,
            "max" : [
                0.10088825225830078,
                0.9274871349334717,
                0.10088825225830078
            ],
            "min" : [
                -0.10088825225830078,
                -0.9467200636863708,
                -0.10088825225830078
            ],
            "type" : "VEC3"
        },
        {
            "bufferView" : 23,
            "componentType" : 5126,
            "count" : 380,
            "type" : "VEC3"
        },
        {
            "bufferView" : 24,
            "componentType" : 5126,
            "count" : 380,
            "type" : "VEC2"
        },
        {
            "bufferView" : 25,
            "componentType" : 5126,
            "count" : 1728,
            "max" : [
                4.224684715270996,
                2.011488437652588,
                0.10088851302862167
            ],
            "min" : [
                -2.0728373527526855,
                -0.34418195486068726,
                -0.10088851302862167
            ],
            "type" : "VEC3"
        },
        {
            "bufferView" : 26,
            "componentType" : 5126,
            "count" : 1728,
            "type" : "VEC3"
        },
        {
            "bufferView" : 27,
            "componentType" : 5126,
            "count" : 1728,
            "type" : "VEC2"
        },
        {
            "bufferView" : 28,
            "componentType" : 5123,
            "count" : 3096,
            "type" : "SCALAR"
        },
        {
            "bufferView" : 29,
            "componentType" : 5126,
            "count" : 96,
            "max" : [
                3.999999761581421,
                0.466183602809906,
                1.0000001192092896
            ],
            "min" : [
                -4,
                -0.4661824703216553,
                -0.9999998807907104
            ],
            "type" : "VEC3"
        },
        {
            "bufferView" : 30,
            "componentType" : 5126,
            "count" : 96,
            "type" : "VEC3"
        },
        {
            "bufferView" : 31,
            "componentType" : 5126,
            "count" : 96,
            "type" : "VEC2"
        },
        {
            "bufferView" : 32,
            "componentType" : 5123,
            "count" : 96,
            "type" : "SCALAR"
        },
        {
            "bufferView" : 33,
            "componentType" : 5126,
            "count" : 1786,
            "max" : [
                4.520077705383301,
                0.9192900657653809,
                0.10088878870010376
            ],
            "min" : [
                -2.0728373527526855,
                -0.10088860988616943,
                -0.10088853538036346
            ],
            "type" : "VEC3"
        },
        {
            "bufferView" : 34,
            "componentType" : 5126,
            "count" : 1786,
            "type" : "VEC3"
        },
        {
            "bufferView" : 35,
            "componentType" : 5126,
            "count" : 1786,
            "type" : "VEC2"
        },
        {
            "bufferView" : 36,
            "componentType" : 5123,
            "count" : 3186,
            "type" : "SCALAR"
        }
    ],
    "bufferViews" : [
        {
            "buffer" : 0,
            "byteLength" : 288,
            "byteOffset" : 0
        },
        {
            "buffer" : 0,
            "byteLength" : 288,
            "byteOffset" : 288
        },
        {
            "buffer" : 0,
            "byteLength" : 192,
            "byteOffset" : 576
        },
        {
            "buffer" : 0,
            "byteLength" : 72,
            "byteOffset" : 768
        },
        {
            "buffer" : 0,
            "byteLength" : 2760,
            "byteOffset" : 840
        },
        {
            "buffer" : 0,
            "byteLength" : 2760,
            "byteOffset" : 3600
        },
        {
            "buffer" : 0,
            "byteLength" : 1840,
            "byteOffset" : 6360
        },
        {
            "buffer" : 0,
            "byteLength" : 2112,
            "byteOffset" : 8200
        },
        {
            "buffer" : 0,
            "byteLength" : 2760,
            "byteOffset" : 10312
        },
        {
            "buffer" : 0,
            "byteLength" : 2760,
            "byteOffset" : 13072
        },
        {
            "buffer" : 0,
            "byteLength" : 1840,
            "byteOffset" : 15832
        },
        {
            "buffer" : 0,
            "byteLength" : 1536,
            "byteOffset" : 17672
        },
        {
            "buffer" : 0,
            "byteLength" : 1536,
            "byteOffset" : 19208
        },
        {
            "buffer" : 0,
            "byteLength" : 1024,
            "byteOffset" : 20744
        },
        {
            "buffer" : 0,
            "byteLength" : 372,
            "byteOffset" : 21768
        },
        {
            "buffer" : 0,
            "byteLength" : 1536,
            "byteOffset" : 22140
        },
        {
            "buffer" : 0,
            "byteLength" : 1536,
            "byteOffset" : 23676
        },
        {
            "buffer" : 0,
            "byteLength" : 1024,
            "byteOffset" : 25212
        },
        {
            "buffer" : 0,
            "byteLength" : 4560,
            "byteOffset" : 26236
        },
        {
            "buffer" : 0,
            "byteLength" : 4560,
            "byteOffset" : 30796
        },
        {
            "buffer" : 0,
            "byteLength" : 3040,
            "byteOffset" : 35356
        },
        {
            "buffer" : 0,
            "byteLength" : 1152,
            "byteOffset" : 38396
        },
        {
            "buffer" : 0,
            "byteLength" : 4560,
            "byteOffset" : 39548
        },
        {
            "buffer" : 0,
            "byteLength" : 4560,
            "byteOffset" : 44108
        },
        {
            "buffer" : 0,
            "byteLength" : 3040,
            "byteOffset" : 48668
        },
        {
            "buffer" : 0,
            "byteLength" : 20736,
            "byteOffset" : 51708
        },
        {
            "buffer" : 0,
            "byteLength" : 20736,
            "byteOffset" : 72444
        },
        {
            "buffer" : 0,
            "byteLength" : 13824,
            "byteOffset" : 93180
        },
        {
            "buffer" : 0,
            "byteLength" : 6192,
            "byteOffset" : 107004
        },
        {
            "buffer" : 0,
            "byteLength" : 1152,
            "byteOffset" : 113196
        },
        {
            "buffer" : 0,
            "byteLength" : 1152,
            "byteOffset" : 114348
        },
        {
            "buffer" : 0,
            "byteLength" : 768,
            "byteOffset" : 115500
        },
        {
            "buffer" : 0,
            "byteLength" : 192,
            "byteOffset" : 116268
        },
        {
            "buffer" : 0,
            "byteLength" : 21432,
            "byteOffset" : 116460
        },
        {
            "buffer" : 0,
            "byteLength" : 21432,
            "byteOffset" : 137892
        },
        {
            "buffer" : 0,
            "byteLength" : 14288,
            "byteOffset" : 159324
        },
        {
            "buffer" : 0,
            "byteLength" : 6372,
            "byteOffset" : 173612
        }
    ],
    "buffers" : [
        {
            "byteLength" : 179984,
            "uri" : "data:application/octet-stream;base64,"
        }
    ]
}
