{
    "asset" : {
        "generator" : "Khronos glTF Blender I/O v1.8.19",
        "version" : "2.0"
    },
    "scene" : 0,
    "scenes" : [
        {
            "name" : "Scene",
            "nodes" : [
                0,
                1,
                2,
                3,
                4,
                5,
                6,
                7
            ]
        }
    ],
    "nodes" : [
        {
            "mesh" : 0,
            "name" : "Object",
            "scale" : [
                2.5712945461273193,
                2.5712945461273193,
                2.5712945461273193
            ],
            "translation" : [
                0,
                3.025601387023926,
                0
            ]
        },
        {
            "mesh" : 1,
            "name" : "Cylinder",
            "rotation" : [
                0,
                -0.06279051303863525,
                0,
                0.9980267286300659
            ],
            "scale" : [
                0.5,
                4.539999961853027,
                0.5
            ],
            "translation" : [
                0.07480376958847046,
                5.1346635818481445,
                0
            ]
        },
        {
            "mesh" : 2,
            "name" : "Cylinder.001",
            "rotation" : [
                0.7071068286895752,
                0,
                0,
                0.7071068286895752
            ],
            "scale" : [
                0.5,
                1.7200000286102295,
                0.5
            ],
            "translation" : [
                0.07480376958847046,
                9.439983367919922,
                1.787316918373108
            ]
        },
        {
            "mesh" : 3,
            "name" : "Sphere",
            "scale" : [
                0.6761690974235535,
                0.6761690974235535,
                0.6761690974235535
            ],
            "translation" : [
                0.10900157690048218,
                9.462690353393555,
                0
            ]
        },
        {
            "mesh" : 4,
            "name" : "Cylinder.002",
            "rotation" : [
                0.7071068286895752,
                0,
                0,
                0.7071068286895752
            ],
            "scale" : [
                0.33212196826934814,
                1.0181102752685547,
                0.33212196826934814
            ],
            "translation" : [
                0.10245019197463989,
                9.439983367919922,
                4.4559197425842285
            ]
        },
        {
            "mesh" : 5,
            "name" : "Cylinder.003",
            "rotation" : [
                0.7071068286895752,
                0,
                0,
                0.7071068286895752
            ],
            "scale" : [
                0.5,
                1.7200000286102295,
                0.5
            ],
            "translation" : [
                0.07480376958847046,
                9.439983367919922,
                6.867495059967041
            ]
        },
        {
            "mesh" : 6,
            "name" : "Object.001",
            "scale" : [
                2.558671474456787,
                2.558671474456787,
                2.558671474456787
            ],
            "translation" : [
                0,
                3.7057454586029053,
                0
            ]
        },
        {
            "mesh" : 7,
            "name" : "Water pompen",
            "rotation" : [
                0.5,
                -0.5,
                0.5,
                0.4999999701976776
            ],
            "translation" : [
                -0.014977723360061646,
                7.598031044006348,
                1.2752342224121094
            ]
        }
    ],
    "materials" : [
        {
            "doubleSided" : true,
            "name" : "Material.005",
            "pbrMetallicRoughness" : {
                "baseColorFactor" : [
                    0.02198006398975849,
                    0.013745303265750408,
                    0.00793960690498352,
                    1
                ],
                "metallicFactor" : 0,
                "roughnessFactor" : 0.5
            }
        },
        {
            "doubleSided" : true,
            "name" : "Material.004",
            "pbrMetallicRoughness" : {
                "baseColorFactor" : [
                    0.010960082523524761,
                    0.01096008438616991,
                    0.009721219539642334,
                    1
                ],
                "metallicFactor" : 0,
                "roughnessFactor" : 0.5
            }
        },
        {
            "doubleSided" : true,
            "name" : "Material.002",
            "pbrMetallicRoughness" : {
                "baseColorFactor" : [
                    0.010960082523524761,
                    0.01096008438616991,
                    0.009721219539642334,
                    1
                ],
                "metallicFactor" : 0,
                "roughnessFactor" : 0.5
            }
        },
        {
            "doubleSided" : true,
            "name" : "Material.003",
            "pbrMetallicRoughness" : {
                "baseColorFactor" : [
                    0.010960082523524761,
                    0.01096008438616991,
                    0.009721219539642334,
                    1
                ],
                "metallicFactor" : 0,
                "roughnessFactor" : 0.5
            }
        },
        {
            "doubleSided" : true,
            "name" : "Material",
            "pbrMetallicRoughness" : {
                "baseColorFactor" : [
                    0,
                    0.11678868532180786,
                    0.8000000715255737,
                    1
                ],
                "metallicFactor" : 0,
                "roughnessFactor" : 0.5
            }
        },
        {
            "doubleSided" : true,
            "name" : "Material.007",
            "pbrMetallicRoughness" : {
                "baseColorFactor" : [
                    0.010960082523524761,
                    0.01096008438616991,
                    0.009721219539642334,
                    1
                ],
                "metallicFactor" : 0,
                "roughnessFactor" : 0.5
            }
        },
        {
            "doubleSided" : true,
            "name" : "Material.008",
            "pbrMetallicRoughness" : {
                "baseColorFactor" : [
                    0.0021246580872684717,
                    0.03310476988554001,
                    0.002428223378956318,
                    1
                ],
                "metallicFactor" : 0,
                "roughnessFactor" : 0.5
            }
        },
        {
            "doubleSided" : true,
            "name" : "Material.009",
            "pbrMetallicRoughness" : {
                "baseColorFactor" : [
                    0.800000011920929,
                    0.800000011920929,
                    0.800000011920929,
                    1
                ],
                "metallicFactor" : 0,
                "roughnessFactor" : 0.5
            }
        }
    ],
    "meshes" : [
        {
            "name" : "Cube.001",
            "primitives" : [
                {
                    "attributes" : {
                        "POSITION" : 0,
                        "NORMAL" : 1,
                        "TEXCOORD_0" : 2,
                        "TEXCOORD_1" : 3
                    },
                    "indices" : 4,
                    "material" : 0
                }
            ]
        },
        {
            "name" : "Cylinder",
            "primitives" : [
                {
                    "attributes" : {
                        "POSITION" : 5,
                        "NORMAL" : 6,
                        "TEXCOORD_0" : 7,
                        "TEXCOORD_1" : 8
                    },
                    "indices" : 9,
                    "material" : 1
                }
            ]
        },
        {
            "name" : "Cylinder.001",
            "primitives" : [
                {
                    "attributes" : {
                        "POSITION" : 10,
                        "NORMAL" : 11,
                        "TEXCOORD_0" : 12,
                        "TEXCOORD_1" : 13
                    },
                    "indices" : 9,
                    "material" : 2
                }
            ]
        },
        {
            "name" : "Sphere",
            "primitives" : [
                {
                    "attributes" : {
                        "POSITION" : 14,
                        "NORMAL" : 15,
                        "TEXCOORD_0" : 16
                    },
                    "indices" : 17,
                    "material" : 3
                }
            ]
        },
        {
            "name" : "Cylinder.003",
            "primitives" : [
                {
                    "attributes" : {
                        "POSITION" : 18,
                        "NORMAL" : 19,
                        "TEXCOORD_0" : 20,
                        "TEXCOORD_1" : 21
                    },
                    "indices" : 9,
                    "material" : 4
                }
            ]
        },
        {
            "name" : "Cylinder.004",
            "primitives" : [
                {
                    "attributes" : {
                        "POSITION" : 22,
                        "NORMAL" : 23,
                        "TEXCOORD_0" : 24,
                        "TEXCOORD_1" : 25
                    },
                    "indices" : 9,
                    "material" : 5
                }
            ]
        },
        {
            "name" : "Cube.003",
            "primitives" : [
                {
                    "attributes" : {
                        "POSITION" : 26,
                        "NORMAL" : 27,
                        "TEXCOORD_0" : 28,
                        "TEXCOORD_1" : 29
                    },
                    "indices" : 4,
                    "material" : 6
                }
            ]
        },
        {
            "name" : "Water pompen",
            "primitives" : [
                {
                    "attributes" : {
                        "POSITION" : 30,
                        "NORMAL" : 31,
                        "TEXCOORD_0" : 32
                    },
                    "indices" : 33,
                    "material" : 7
                }
            ]
        }
    ],
    "accessors" : [
        {
            "bufferView" : 0,
            "componentType" : 5126,
            "count" : 24,
            "max" : [
                1,
                1,
                1
            ],
            "min" : [
                -1,
                -1,
                -1
            ],
            "type" : "VEC3"
        },
        {
            "bufferView" : 1,
            "componentType" : 5126,
            "count" : 24,
            "type" : "VEC3"
        },
        {
            "bufferView" : 2,
            "componentType" : 5126,
            "count" : 24,
            "type" : "VEC2"
        },
        {
            "bufferView" : 3,
            "componentType" : 5126,
            "count" : 24,
            "type" : "VEC2"
        },
        {
            "bufferView" : 4,
            "componentType" : 5123,
            "count" : 36,
            "type" : "SCALAR"
        },
        {
            "bufferView" : 5,
            "componentType" : 5126,
            "count" : 192,
            "max" : [
                1,
                1,
                1
            ],
            "min" : [
                -1,
                -1,
                -1
            ],
            "type" : "VEC3"
        },
        {
            "bufferView" : 6,
            "componentType" : 5126,
            "count" : 192,
            "type" : "VEC3"
        },
        {
            "bufferView" : 7,
            "componentType" : 5126,
            "count" : 192,
            "type" : "VEC2"
        },
        {
            "bufferView" : 8,
            "componentType" : 5126,
            "count" : 192,
            "type" : "VEC2"
        },
        {
            "bufferView" : 9,
            "componentType" : 5123,
            "count" : 372,
            "type" : "SCALAR"
        },
        {
            "bufferView" : 10,
            "componentType" : 5126,
            "count" : 192,
            "max" : [
                1,
                1,
                1
            ],
            "min" : [
                -1,
                -1,
                -1
            ],
            "type" : "VEC3"
        },
        {
            "bufferView" : 11,
            "componentType" : 5126,
            "count" : 192,
            "type" : "VEC3"
        },
        {
            "bufferView" : 12,
            "componentType" : 5126,
            "count" : 192,
            "type" : "VEC2"
        },
        {
            "bufferView" : 13,
            "componentType" : 5126,
            "count" : 192,
            "type" : "VEC2"
        },
        {
            "bufferView" : 14,
            "componentType" : 5126,
            "count" : 1984,
            "max" : [
                0.9999997019767761,
                1,
                0.9999994039535522
            ],
            "min" : [
                -0.9999990463256836,
                -1,
                -0.9999987483024597
            ],
            "type" : "VEC3"
        },
        {
            "bufferView" : 15,
            "componentType" : 5126,
            "count" : 1984,
            "type" : "VEC3"
        },
        {
            "bufferView" : 16,
            "componentType" : 5126,
            "count" : 1984,
            "type" : "VEC2"
        },
        {
            "bufferView" : 17,
            "componentType" : 5123,
            "count" : 2880,
            "type" : "SCALAR"
        },
        {
            "bufferView" : 18,
            "componentType" : 5126,
            "count" : 192,
            "max" : [
                1,
                1,
                1
            ],
            "min" : [
                -1,
                -1,
                -1
            ],
            "type" : "VEC3"
        },
        {
            "bufferView" : 19,
            "componentType" : 5126,
            "count" : 192,
            "type" : "VEC3"
        },
        {
            "bufferView" : 20,
            "componentType" : 5126,
            "count" : 192,
            "type" : "VEC2"
        },
        {
            "bufferView" : 21,
            "componentType" : 5126,
            "count" : 192,
            "type" : "VEC2"
        },
        {
            "bufferView" : 22,
            "componentType" : 5126,
            "count" : 192,
            "max" : [
                1,
                1,
                1
            ],
            "min" : [
                -1,
                -1,
                -1
            ],
            "type" : "VEC3"
        },
        {
            "bufferView" : 23,
            "componentType" : 5126,
            "count" : 192,
            "type" : "VEC3"
        },
        {
            "bufferView" : 24,
            "componentType" : 5126,
            "count" : 192,
            "type" : "VEC2"
        },
        {
            "bufferView" : 25,
            "componentType" : 5126,
            "count" : 192,
            "type" : "VEC2"
        },
        {
            "bufferView" : 26,
            "componentType" : 5126,
            "count" : 24,
            "max" : [
                1,
                1,
                1
            ],
            "min" : [
                -1,
                -1,
                -1
            ],
            "type" : "VEC3"
        },
        {
            "bufferView" : 27,
            "componentType" : 5126,
            "count" : 24,
            "type" : "VEC3"
        },
        {
            "bufferView" : 28,
            "componentType" : 5126,
            "count" : 24,
            "type" : "VEC2"
        },
        {
            "bufferView" : 29,
            "componentType" : 5126,
            "count" : 24,
            "type" : "VEC2"
        },
        {
            "bufferView" : 30,
            "componentType" : 5126,
            "count" : 2010,
            "max" : [
                9.623001098632812,
                0,
                0.23000000417232513
            ],
            "min" : [
                0.05000000074505806,
                0,
                -0.6910000443458557
            ],
            "type" : "VEC3"
        },
        {
            "bufferView" : 31,
            "componentType" : 5126,
            "count" : 2010,
            "type" : "VEC3"
        },
        {
            "bufferView" : 32,
            "componentType" : 5126,
            "count" : 2010,
            "type" : "VEC2"
        },
        {
            "bufferView" : 33,
            "componentType" : 5123,
            "count" : 4380,
            "type" : "SCALAR"
        }
    ],
    "bufferViews" : [
        {
            "buffer" : 0,
            "byteLength" : 288,
            "byteOffset" : 0
        },
        {
            "buffer" : 0,
            "byteLength" : 288,
            "byteOffset" : 288
        },
        {
            "buffer" : 0,
            "byteLength" : 192,
            "byteOffset" : 576
        },
        {
            "buffer" : 0,
            "byteLength" : 192,
            "byteOffset" : 768
        },
        {
            "buffer" : 0,
            "byteLength" : 72,
            "byteOffset" : 960
        },
        {
            "buffer" : 0,
            "byteLength" : 2304,
            "byteOffset" : 1032
        },
        {
            "buffer" : 0,
            "byteLength" : 2304,
            "byteOffset" : 3336
        },
        {
            "buffer" : 0,
            "byteLength" : 1536,
            "byteOffset" : 5640
        },
        {
            "buffer" : 0,
            "byteLength" : 1536,
            "byteOffset" : 7176
        },
        {
            "buffer" : 0,
            "byteLength" : 744,
            "byteOffset" : 8712
        },
        {
            "buffer" : 0,
            "byteLength" : 2304,
            "byteOffset" : 9456
        },
        {
            "buffer" : 0,
            "byteLength" : 2304,
            "byteOffset" : 11760
        },
        {
            "buffer" : 0,
            "byteLength" : 1536,
            "byteOffset" : 14064
        },
        {
            "buffer" : 0,
            "byteLength" : 1536,
            "byteOffset" : 15600
        },
        {
            "buffer" : 0,
            "byteLength" : 23808,
            "byteOffset" : 17136
        },
        {
            "buffer" : 0,
            "byteLength" : 23808,
            "byteOffset" : 40944
        },
        {
            "buffer" : 0,
            "byteLength" : 15872,
            "byteOffset" : 64752
        },
        {
            "buffer" : 0,
            "byteLength" : 5760,
            "byteOffset" : 80624
        },
        {
            "buffer" : 0,
            "byteLength" : 2304,
            "byteOffset" : 86384
        },
        {
            "buffer" : 0,
            "byteLength" : 2304,
            "byteOffset" : 88688
        },
        {
            "buffer" : 0,
            "byteLength" : 1536,
            "byteOffset" : 90992
        },
        {
            "buffer" : 0,
            "byteLength" : 1536,
            "byteOffset" : 92528
        },
        {
            "buffer" : 0,
            "byteLength" : 2304,
            "byteOffset" : 94064
        },
        {
            "buffer" : 0,
            "byteLength" : 2304,
            "byteOffset" : 96368
        },
        {
            "buffer" : 0,
            "byteLength" : 1536,
            "byteOffset" : 98672
        },
        {
            "buffer" : 0,
            "byteLength" : 1536,
            "byteOffset" : 100208
        },
        {
            "buffer" : 0,
            "byteLength" : 288,
            "byteOffset" : 101744
        },
        {
            "buffer" : 0,
            "byteLength" : 288,
            "byteOffset" : 102032
        },
        {
            "buffer" : 0,
            "byteLength" : 192,
            "byteOffset" : 102320
        },
        {
            "buffer" : 0,
            "byteLength" : 192,
            "byteOffset" : 102512
        },
        {
            "buffer" : 0,
            "byteLength" : 24120,
            "byteOffset" : 102704
        },
        {
            "buffer" : 0,
            "byteLength" : 24120,
            "byteOffset" : 126824
        },
        {
            "buffer" : 0,
            "byteLength" : 16080,
            "byteOffset" : 150944
        },
        {
            "buffer" : 0,
            "byteLength" : 8760,
            "byteOffset" : 167024
        }
    ],
    "buffers" : [
        {
            "byteLength" : 175784,
            "uri" : "data:application/octet-stream;base64,"
        }
    ]
}
