{
    "asset" : {
        "generator" : "Khronos glTF Blender I/O v1.7.33",
        "version" : "2.0"
    },
    "scene" : 0,
    "scenes" : [
        {
            "name" : "Scene",
            "nodes" : [
                0,
                1,
                2,
                3,
                4,
                5,
                6,
                7,
                8
            ]
        }
    ],
    "nodes" : [
        {
            "mesh" : 0,
            "name" : "Cube",
            "translation" : [
                2.1070914268493652,
                13.173622131347656,
                0
            ]
        },
        {
            "mesh" : 1,
            "name" : "Cylinder",
            "rotation" : [
                0,
                0,
                -0.7071068286895752,
                0.7071068286895752
            ],
            "scale" : [
                1,
                1.3572944402694702,
                1
            ],
            "translation" : [
                4.431236267089844,
                13.436433792114258,
                0.237227201461792
            ]
        },
        {
            "mesh" : 2,
            "name" : "Cube.001",
            "translation" : [
                -1.2261677980422974,
                9.574414253234863,
                0
            ]
        },
        {
            "mesh" : 3,
            "name" : "Cube.003",
            "translation" : [
                2.1070914268493652,
                5.853121280670166,
                0
            ]
        },
        {
            "mesh" : 4,
            "name" : "Cube.004",
            "translation" : [
                -1.2261677980422974,
                2.4929556846618652,
                0
            ]
        },
        {
            "mesh" : 5,
            "name" : "Cylinder.001",
            "rotation" : [
                0,
                0,
                -0.7071068286895752,
                0.7071068286895752
            ],
            "scale" : [
                1,
                1.3572944402694702,
                1
            ],
            "translation" : [
                -3.5155208110809326,
                1.3601667881011963,
                0.237227201461792
            ]
        },
        {
            "mesh" : 6,
            "name" : "Plane",
            "translation" : [
                -0.07257279008626938,
                15.056684494018555,
                0
            ]
        },
        {
            "mesh" : 7,
            "name" : "Plane.001",
            "rotation" : [
                0,
                1,
                0,
                -1.6292068494294654e-07
            ],
            "translation" : [
                0.9848802089691162,
                11.441619873046875,
                -0.02707749605178833
            ]
        },
        {
            "mesh" : 8,
            "name" : "Plane.002",
            "rotation" : [
                0,
                0,
                0,
                -1
            ],
            "translation" : [
                -0.061100274324417114,
                7.694373607635498,
                -0.0005447268486022949
            ]
        }
    ],
    "materials" : [
        {
            "doubleSided" : true,
            "name" : "Material.001",
            "pbrMetallicRoughness" : {
                "baseColorFactor" : [
                    0.07227186858654022,
                    0.05612850934267044,
                    0.33245155215263367,
                    1
                ],
                "metallicFactor" : 0,
                "roughnessFactor" : 0.4000000059604645
            }
        },
        {
            "doubleSided" : true,
            "name" : "Material",
            "pbrMetallicRoughness" : {
                "baseColorFactor" : [
                    0.04351663216948509,
                    0.042662836611270905,
                    0.04720671474933624,
                    1
                ],
                "metallicFactor" : 0,
                "roughnessFactor" : 0.5
            }
        },
        {
            "doubleSided" : true,
            "name" : "Material.003",
            "pbrMetallicRoughness" : {
                "baseColorFactor" : [
                    0.07227186858654022,
                    0.057805441319942474,
                    0.33716365694999695,
                    1
                ],
                "metallicFactor" : 0,
                "roughnessFactor" : 0.4000000059604645
            }
        },
        {
            "doubleSided" : true,
            "name" : "Material.004",
            "pbrMetallicRoughness" : {
                "baseColorFactor" : [
                    0.07227186858654022,
                    0.05612850934267044,
                    0.33245155215263367,
                    1
                ],
                "metallicFactor" : 0,
                "roughnessFactor" : 0.4000000059604645
            }
        },
        {
            "doubleSided" : true,
            "name" : "Material.005",
            "pbrMetallicRoughness" : {
                "baseColorFactor" : [
                    0.05348450690507889,
                    0.05241404101252556,
                    0.05811002478003502,
                    1
                ],
                "metallicFactor" : 0,
                "roughnessFactor" : 0.5
            }
        },
        {
            "doubleSided" : true,
            "name" : "Water",
            "pbrMetallicRoughness" : {
                "baseColorTexture" : {
                    "index" : 0
                },
                "metallicFactor" : 0,
                "roughnessFactor" : 0.5
            }
        }
    ],
    "meshes" : [
        {
            "name" : "Cube",
            "primitives" : [
                {
                    "attributes" : {
                        "POSITION" : 0,
                        "NORMAL" : 1,
                        "TEXCOORD_0" : 2
                    },
                    "indices" : 3,
                    "material" : 0
                }
            ]
        },
        {
            "name" : "Cylinder",
            "primitives" : [
                {
                    "attributes" : {
                        "POSITION" : 4,
                        "NORMAL" : 5,
                        "TEXCOORD_0" : 6
                    },
                    "indices" : 7,
                    "material" : 1
                }
            ]
        },
        {
            "name" : "Cube.001",
            "primitives" : [
                {
                    "attributes" : {
                        "POSITION" : 8,
                        "NORMAL" : 9,
                        "TEXCOORD_0" : 10
                    },
                    "indices" : 11,
                    "material" : 0
                }
            ]
        },
        {
            "name" : "Cube.003",
            "primitives" : [
                {
                    "attributes" : {
                        "POSITION" : 12,
                        "NORMAL" : 13,
                        "TEXCOORD_0" : 14
                    },
                    "indices" : 11,
                    "material" : 2
                }
            ]
        },
        {
            "name" : "Cube.004",
            "primitives" : [
                {
                    "attributes" : {
                        "POSITION" : 15,
                        "NORMAL" : 16,
                        "TEXCOORD_0" : 17
                    },
                    "indices" : 11,
                    "material" : 3
                }
            ]
        },
        {
            "name" : "Cylinder.001",
            "primitives" : [
                {
                    "attributes" : {
                        "POSITION" : 18,
                        "NORMAL" : 19,
                        "TEXCOORD_0" : 20
                    },
                    "indices" : 7,
                    "material" : 4
                }
            ]
        },
        {
            "name" : "Plane",
            "primitives" : [
                {
                    "attributes" : {
                        "POSITION" : 21,
                        "NORMAL" : 22,
                        "TEXCOORD_0" : 23
                    },
                    "indices" : 24,
                    "material" : 5
                }
            ]
        },
        {
            "name" : "Plane.001",
            "primitives" : [
                {
                    "attributes" : {
                        "POSITION" : 25,
                        "NORMAL" : 26,
                        "TEXCOORD_0" : 27
                    },
                    "indices" : 24,
                    "material" : 5
                }
            ]
        },
        {
            "name" : "Plane.002",
            "primitives" : [
                {
                    "attributes" : {
                        "POSITION" : 28,
                        "NORMAL" : 29,
                        "TEXCOORD_0" : 30
                    },
                    "indices" : 24,
                    "material" : 5
                }
            ]
        }
    ],
    "textures" : [
        {
            "sampler" : 0,
            "source" : 0
        }
    ],
    "images" : [
        {
            "bufferView" : 25,
            "mimeType" : "image/jpeg",
            "name" : "WaterPlain0010_download600"
        }
    ],
    "accessors" : [
        {
            "bufferView" : 0,
            "componentType" : 5126,
            "count" : 40,
            "max" : [
                1,
                1.4872033596038818,
                1
            ],
            "min" : [
                -1,
                -1.6270657777786255,
                -1
            ],
            "type" : "VEC3"
        },
        {
            "bufferView" : 1,
            "componentType" : 5126,
            "count" : 40,
            "type" : "VEC3"
        },
        {
            "bufferView" : 2,
            "componentType" : 5126,
            "count" : 40,
            "type" : "VEC2"
        },
        {
            "bufferView" : 3,
            "componentType" : 5123,
            "count" : 60,
            "type" : "SCALAR"
        },
        {
            "bufferView" : 4,
            "componentType" : 5126,
            "count" : 192,
            "max" : [
                -0.4117557406425476,
                1,
                -0.0036000460386276245
            ],
            "min" : [
                -0.9330037236213684,
                -1,
                -0.4023728370666504
            ],
            "type" : "VEC3"
        },
        {
            "bufferView" : 5,
            "componentType" : 5126,
            "count" : 192,
            "type" : "VEC3"
        },
        {
            "bufferView" : 6,
            "componentType" : 5126,
            "count" : 192,
            "type" : "VEC2"
        },
        {
            "bufferView" : 7,
            "componentType" : 5123,
            "count" : 372,
            "type" : "SCALAR"
        },
        {
            "bufferView" : 8,
            "componentType" : 5126,
            "count" : 20,
            "max" : [
                1,
                1.4872033596038818,
                1
            ],
            "min" : [
                -1,
                -1.4872033596038818,
                -1
            ],
            "type" : "VEC3"
        },
        {
            "bufferView" : 9,
            "componentType" : 5126,
            "count" : 20,
            "type" : "VEC3"
        },
        {
            "bufferView" : 10,
            "componentType" : 5126,
            "count" : 20,
            "type" : "VEC2"
        },
        {
            "bufferView" : 11,
            "componentType" : 5123,
            "count" : 30,
            "type" : "SCALAR"
        },
        {
            "bufferView" : 12,
            "componentType" : 5126,
            "count" : 20,
            "max" : [
                1,
                1.4872033596038818,
                1
            ],
            "min" : [
                -1,
                -1.4872033596038818,
                -1
            ],
            "type" : "VEC3"
        },
        {
            "bufferView" : 13,
            "componentType" : 5126,
            "count" : 20,
            "type" : "VEC3"
        },
        {
            "bufferView" : 14,
            "componentType" : 5126,
            "count" : 20,
            "type" : "VEC2"
        },
        {
            "bufferView" : 15,
            "componentType" : 5126,
            "count" : 20,
            "max" : [
                1,
                1.4872033596038818,
                1
            ],
            "min" : [
                -1,
                -1.4872033596038818,
                -1
            ],
            "type" : "VEC3"
        },
        {
            "bufferView" : 16,
            "componentType" : 5126,
            "count" : 20,
            "type" : "VEC3"
        },
        {
            "bufferView" : 17,
            "componentType" : 5126,
            "count" : 20,
            "type" : "VEC2"
        },
        {
            "bufferView" : 18,
            "componentType" : 5126,
            "count" : 192,
            "max" : [
                -0.4117557406425476,
                1,
                -0.0036000460386276245
            ],
            "min" : [
                -0.9330037236213684,
                -1,
                -0.4023728370666504
            ],
            "type" : "VEC3"
        },
        {
            "bufferView" : 19,
            "componentType" : 5126,
            "count" : 192,
            "type" : "VEC3"
        },
        {
            "bufferView" : 20,
            "componentType" : 5126,
            "count" : 192,
            "type" : "VEC2"
        },
        {
            "bufferView" : 21,
            "componentType" : 5126,
            "count" : 120,
            "max" : [
                1.1824244260787964,
                -0.39780011773109436,
                0.8683391213417053
            ],
            "min" : [
                -1.314917802810669,
                -4.614251136779785,
                -0.866088330745697
            ],
            "type" : "VEC3"
        },
        {
            "bufferView" : 22,
            "componentType" : 5126,
            "count" : 120,
            "type" : "VEC3"
        },
        {
            "bufferView" : 23,
            "componentType" : 5126,
            "count" : 120,
            "type" : "VEC2"
        },
        {
            "bufferView" : 24,
            "componentType" : 5123,
            "count" : 180,
            "type" : "SCALAR"
        },
        {
            "bufferView" : 26,
            "componentType" : 5126,
            "count" : 120,
            "max" : [
                1.1824244260787964,
                -0.39780011773109436,
                0.8683391213417053
            ],
            "min" : [
                -1.314917802810669,
                -4.614251136779785,
                -0.866088330745697
            ],
            "type" : "VEC3"
        },
        {
            "bufferView" : 27,
            "componentType" : 5126,
            "count" : 120,
            "type" : "VEC3"
        },
        {
            "bufferView" : 28,
            "componentType" : 5126,
            "count" : 120,
            "type" : "VEC2"
        },
        {
            "bufferView" : 29,
            "componentType" : 5126,
            "count" : 120,
            "max" : [
                1.1824244260787964,
                -0.39780011773109436,
                0.8683391213417053
            ],
            "min" : [
                -1.314917802810669,
                -4.614251136779785,
                -0.866088330745697
            ],
            "type" : "VEC3"
        },
        {
            "bufferView" : 30,
            "componentType" : 5126,
            "count" : 120,
            "type" : "VEC3"
        },
        {
            "bufferView" : 31,
            "componentType" : 5126,
            "count" : 120,
            "type" : "VEC2"
        }
    ],
    "bufferViews" : [
        {
            "buffer" : 0,
            "byteLength" : 480,
            "byteOffset" : 0
        },
        {
            "buffer" : 0,
            "byteLength" : 480,
            "byteOffset" : 480
        },
        {
            "buffer" : 0,
            "byteLength" : 320,
            "byteOffset" : 960
        },
        {
            "buffer" : 0,
            "byteLength" : 120,
            "byteOffset" : 1280
        },
        {
            "buffer" : 0,
            "byteLength" : 2304,
            "byteOffset" : 1400
        },
        {
            "buffer" : 0,
            "byteLength" : 2304,
            "byteOffset" : 3704
        },
        {
            "buffer" : 0,
            "byteLength" : 1536,
            "byteOffset" : 6008
        },
        {
            "buffer" : 0,
            "byteLength" : 744,
            "byteOffset" : 7544
        },
        {
            "buffer" : 0,
            "byteLength" : 240,
            "byteOffset" : 8288
        },
        {
            "buffer" : 0,
            "byteLength" : 240,
            "byteOffset" : 8528
        },
        {
            "buffer" : 0,
            "byteLength" : 160,
            "byteOffset" : 8768
        },
        {
            "buffer" : 0,
            "byteLength" : 60,
            "byteOffset" : 8928
        },
        {
            "buffer" : 0,
            "byteLength" : 240,
            "byteOffset" : 8988
        },
        {
            "buffer" : 0,
            "byteLength" : 240,
            "byteOffset" : 9228
        },
        {
            "buffer" : 0,
            "byteLength" : 160,
            "byteOffset" : 9468
        },
        {
            "buffer" : 0,
            "byteLength" : 240,
            "byteOffset" : 9628
        },
        {
            "buffer" : 0,
            "byteLength" : 240,
            "byteOffset" : 9868
        },
        {
            "buffer" : 0,
            "byteLength" : 160,
            "byteOffset" : 10108
        },
        {
            "buffer" : 0,
            "byteLength" : 2304,
            "byteOffset" : 10268
        },
        {
            "buffer" : 0,
            "byteLength" : 2304,
            "byteOffset" : 12572
        },
        {
            "buffer" : 0,
            "byteLength" : 1536,
            "byteOffset" : 14876
        },
        {
            "buffer" : 0,
            "byteLength" : 1440,
            "byteOffset" : 16412
        },
        {
            "buffer" : 0,
            "byteLength" : 1440,
            "byteOffset" : 17852
        },
        {
            "buffer" : 0,
            "byteLength" : 960,
            "byteOffset" : 19292
        },
        {
            "buffer" : 0,
            "byteLength" : 360,
            "byteOffset" : 20252
        },
        {
            "buffer" : 0,
            "byteLength" : 44411,
            "byteOffset" : 20612
        },
        {
            "buffer" : 0,
            "byteLength" : 1440,
            "byteOffset" : 65024
        },
        {
            "buffer" : 0,
            "byteLength" : 1440,
            "byteOffset" : 66464
        },
        {
            "buffer" : 0,
            "byteLength" : 960,
            "byteOffset" : 67904
        },
        {
            "buffer" : 0,
            "byteLength" : 1440,
            "byteOffset" : 68864
        },
        {
            "buffer" : 0,
            "byteLength" : 1440,
            "byteOffset" : 70304
        },
        {
            "buffer" : 0,
            "byteLength" : 960,
            "byteOffset" : 71744
        }
    ],
    "samplers" : [
        {
            "magFilter" : 9729,
            "minFilter" : 9987
        }
    ],
    "buffers" : [
        {
            "byteLength" : 72704,
            "uri" : "data:application/octet-stream;base64,"
        }
    ]
}
